P2
# Created by GIMP version 2.10.20 PNM plug-in
15 8
255
255
255
255
255
255
255
255
255
211
255
255
255
255
255
255
255
255
249
236
255
255
255
251
167
255
255
255
255
255
255
254
238
226
223
239
245
237
232
192
241
250
239
241
249
241
211
109
175
183
187
156
179
158
194
129
177
177
156
139
140
181
166
173
189
244
135
183
190
184
165
182
212
195
175
220
255
255
255
255
241
174
255
255
255
255
255
255
255
255
255
255
255
255
255
254
254
255
255
255
255
255
255
255
255
255
255
255
255
255
255
255
255
255
255
255
255
255
255
255
255
