P2
# Created by GIMP version 2.10.20 PNM plug-in
15 8
255
255
255
255
255
255
255
255
255
255
255
255
255
255
255
255
255
255
255
255
255
255
255
255
255
255
255
250
255
250
255
255
255
255
251
244
255
255
255
255
255
245
216
242
194
255
241
231
237
210
210
221
234
218
235
223
210
205
208
194
222
164
149
154
189
193
173
177
178
173
166
144
175
172
167
151
254
254
253
254
255
254
254
254
254
254
254
254
254
254
254
255
255
255
255
255
255
255
255
255
255
255
255
255
255
255
255
255
255
255
255
255
255
255
255
255
255
255
255
255
255
