P2
# Created by GIMP version 2.10.20 PNM plug-in
15 8
255
255
255
255
255
255
255
255
255
255
255
255
255
255
255
255
255
255
255
255
246
241
255
255
255
255
255
230
255
255
255
255
255
255
255
207
232
253
247
255
255
245
182
255
255
255
255
255
255
255
178
249
220
228
254
255
223
212
255
255
255
255
255
255
255
154
155
174
188
178
176
151
240
255
255
255
255
255
255
249
139
167
149
165
245
148
157
250
255
255
255
255
255
255
255
253
254
253
254
255
254
254
255
255
255
255
255
255
255
255
255
255
255
255
255
255
255
255
255
255
255
