P2
# Created by GIMP version 2.10.20 PNM plug-in
15 8
255
255
255
255
255
255
255
255
255
255
255
255
255
255
255
255
255
255
255
255
255
255
255
255
255
255
248
249
255
255
255
255
255
255
255
255
255
255
255
255
255
153
237
255
255
255
255
255
255
255
250
207
224
241
203
237
80
223
255
255
255
255
255
255
255
168
226
208
179
111
230
135
254
255
255
255
255
255
255
255
172
188
213
136
102
214
170
255
255
255
255
255
255
255
255
255
254
255
254
253
254
254
255
255
255
255
255
255
255
255
255
255
255
255
255
255
255
255
255
255
255
