P2
# Created by GIMP version 2.10.20 PNM plug-in
15 8
255
255
255
255
255
255
255
255
255
255
255
255
255
255
255
255
255
255
255
255
255
233
252
255
255
255
255
255
255
255
255
255
255
255
255
255
167
254
255
255
255
255
255
255
255
255
255
255
255
255
254
171
254
254
255
254
255
254
255
255
255
255
255
255
220
172
185
158
167
182
147
200
178
253
255
255
255
255
255
189
178
196
134
207
151
186
165
246
255
255
255
255
255
255
254
254
254
254
255
254
254
254
255
255
255
255
255
255
255
255
255
255
255
255
255
255
255
255
255
255
255
