P2
# Created by GIMP version 2.10.20 PNM plug-in
15 8
255
255
255
255
255
255
255
255
255
255
255
255
255
255
255
255
255
255
255
255
255
255
230
255
255
255
255
255
255
255
255
255
255
255
255
255
253
168
255
255
255
255
255
255
255
255
255
255
255
255
255
238
194
254
254
255
254
254
255
255
255
255
255
255
255
191
162
201
173
160
183
157
231
255
255
255
255
255
255
255
157
166
201
173
181
146
152
251
255
255
255
255
255
255
255
254
254
255
253
249
180
156
255
255
255
255
255
255
255
255
255
255
255
255
254
250
245
255
255
255
255
