P2
# Created by GIMP version 2.10.20 PNM plug-in
15 8
255
255
255
255
255
255
255
255
255
255
255
255
255
255
255
255
255
255
255
255
255
224
249
255
255
255
255
255
255
255
255
255
255
255
255
232
205
250
255
255
255
255
255
255
255
255
255
255
255
255
187
236
254
255
253
255
254
254
255
255
255
255
255
255
254
142
198
165
177
175
192
176
153
255
255
255
255
255
255
253
154
189
231
165
176
183
170
182
255
255
255
255
255
255
255
254
254
255
254
254
225
159
211
255
255
255
255
255
255
255
255
255
255
255
255
254
242
254
255
255
255
