P2
# Created by GIMP version 2.10.20 PNM plug-in
15 8
255
255
255
255
255
255
255
255
255
255
255
255
255
255
255
255
255
255
255
229
255
255
255
255
255
255
255
255
255
255
255
255
255
251
167
255
255
255
255
255
255
255
255
255
255
255
255
255
233
193
254
254
254
255
254
254
254
254
254
255
255
255
255
208
165
185
169
160
188
178
162
183
154
181
255
255
255
255
179
209
190
155
167
155
244
147
181
140
216
255
255
255
255
254
254
254
254
254
254
255
254
255
254
255
255
255
255
255
255
255
255
255
255
255
255
255
255
255
255
255
255
