P2
# Created by GIMP version 2.10.20 PNM plug-in
24 24
255
60
144
137
126
161
179
180
148
135
143
152
171
179
174
157
124
111
167
206
210
210
203
199
196
41
121
137
128
152
188
196
160
121
112
112
136
150
148
133
134
143
182
188
198
207
209
205
210
32
115
164
152
155
189
196
172
130
101
109
117
107
120
110
130
179
202
191
197
207
209
210
215
96
173
186
157
152
184
191
188
166
135
132
121
95
110
111
127
183
205
186
207
233
227
232
228
174
188
183
149
123
164
190
194
186
176
157
134
118
118
122
130
168
197
187
216
234
227
227
210
190
193
190
146
117
155
179
184
185
185
167
141
105
120
122
125
162
189
206
232
232
235
232
201
197
203
191
140
138
167
178
183
186
178
157
127
109
120
121
122
160
177
203
238
242
242
239
208
200
207
188
148
157
184
187
185
185
162
135
110
117
135
126
128
160
171
188
233
244
243
239
218
195
196
183
167
161
172
177
167
166
165
141
122
135
161
137
148
163
166
188
229
242
245
243
231
193
168
160
188
162
147
136
136
162
160
139
146
167
165
149
162
154
157
194
227
240
244
246
243
193
148
133
197
182
178
167
168
185
172
132
117
169
170
151
158
172
174
189
231
241
242
243
250
193
153
123
197
200
191
190
181
165
168
162
141
150
177
162
146
185
177
169
196
232
240
243
247
180
165
122
179
209
187
169
179
169
156
169
167
114
152
179
136
156
172
146
106
146
209
237
235
166
175
159
167
203
206
201
210
189
169
171
164
116
123
176
138
150
188
158
119
101
134
178
187
176
186
186
181
189
207
213
222
221
198
186
173
141
107
153
143
154
180
152
152
136
116
140
158
194
195
194
202
185
184
192
200
204
209
202
178
172
138
131
161
171
159
136
149
142
131
152
163
190
199
192
195
198
189
190
187
172
194
200
193
208
193
152
173
163
139
128
146
147
154
164
157
178
195
201
191
200
206
208
179
153
179
185
184
198
198
177
169
138
127
140
151
157
165
157
143
169
192
211
209
205
208
207
183
159
174
183
179
183
183
179
154
115
128
153
156
156
165
158
142
168
188
211
215
214
213
201
187
178
187
189
184
188
185
174
137
118
140
157
153
152
175
163
150
176
188
207
207
207
207
182
146
173
197
189
186
188
184
162
134
129
144
153
143
145
167
161
153
184
188
206
205
199
198
138
92
153
196
186
178
178
169
151
135
124
142
146
139
141
146
144
140
177
180
204
210
204
195
138
95
151
189
174
165
165
153
141
124
119
138
140
130
137
127
116
126
172
171
196
212
208
193
167
153
178
171
158
154
145
137
131
104
116
134
131
127
130
118
112
118
