P2
# Created by GIMP version 2.10.20 PNM plug-in
24 24
255
80
87
80
60
89
91
83
83
87
98
99
95
87
68
68
71
79
77
80
83
83
81
82
82
79
77
74
74
76
77
80
82
84
88
88
89
94
91
97
98
99
100
96
98
93
89
89
85
79
61
42
53
78
80
81
83
85
82
88
97
95
97
110
113
103
101
102
103
92
82
79
75
74
55
38
42
70
77
75
75
75
78
86
96
101
93
94
105
106
110
110
93
84
80
78
76
92
103
85
47
67
76
84
93
91
95
96
90
98
100
97
94
102
107
110
101
87
88
85
81
140
155
103
52
70
77
87
107
111
118
111
96
98
101
102
98
99
105
111
114
99
93
90
89
164
167
88
51
75
71
65
98
113
123
120
101
101
102
100
101
101
100
104
108
103
100
104
103
165
166
92
44
77
80
69
97
116
105
114
107
100
103
101
98
102
101
97
103
98
99
107
106
156
156
116
47
70
96
103
114
128
112
107
109
100
109
103
98
101
102
94
98
108
97
102
108
146
145
135
76
44
71
99
112
125
126
107
106
102
113
107
101
101
101
95
93
112
103
96
103
142
147
149
132
85
66
51
67
95
102
98
104
109
117
118
110
104
102
95
92
102
106
87
92
152
159
152
147
152
111
51
56
103
101
97
105
117
130
127
121
108
101
98
95
93
106
86
78
163
159
135
113
154
142
122
104
118
118
100
104
114
124
125
120
110
102
100
99
91
102
93
84
167
177
175
127
177
197
151
143
105
137
122
104
114
118
123
120
112
108
105
103
92
98
100
91
218
236
247
197
160
203
172
177
101
136
132
109
112
118
121
120
117
114
110
105
96
96
101
79
251
243
250
245
166
165
171
192
109
111
136
115
111
117
119
119
120
119
118
108
100
94
91
63
241
186
188
206
155
140
153
157
121
111
131
117
114
119
120
120
120
120
118
108
98
91
84
70
233
129
112
124
120
130
125
118
114
112
109
104
113
121
122
120
119
114
105
101
92
85
82
85
202
126
120
126
105
101
95
95
98
98
78
66
98
111
112
109
105
102
106
108
99
86
77
90
142
136
135
135
106
70
74
79
83
97
97
57
55
80
88
94
103
110
115
110
94
77
75
86
128
122
111
104
106
92
69
65
78
106
108
84
69
84
94
101
112
116
116
118
105
75
72
75
104
96
101
106
112
115
104
85
91
101
100
93
80
89
100
106
127
135
122
115
115
99
74
72
100
106
109
107
104
95
88
83
68
71
89
99
89
88
99
105
130
140
125
113
107
103
85
74
106
107
101
89
76
64
69
87
78
64
76
92
87
83
89
88
100
116
113
106
102
99
81
68
