P2
# Created by GIMP version 2.10.20 PNM plug-in
24 24
255
199
212
224
212
214
236
225
215
217
230
212
236
227
225
235
222
168
173
224
236
247
231
235
246
199
210
224
214
217
237
222
215
215
229
199
205
208
207
238
202
122
165
226
232
246
229
225
239
193
203
221
214
219
233
216
212
216
229
188
176
189
191
210
191
128
148
181
188
223
224
214
230
195
207
210
209
216
225
210
212
214
217
199
206
177
147
111
92
83
77
77
67
107
183
206
223
168
175
164
183
194
198
192
198
202
193
193
197
150
119
105
106
102
101
108
78
82
122
160
177
108
110
112
127
136
138
142
149
152
144
157
159
132
116
117
117
105
105
100
91
142
128
152
147
96
103
95
98
100
109
106
110
113
117
130
124
106
106
107
103
92
84
106
118
131
111
144
192
125
120
96
80
102
127
110
111
128
136
131
120
117
112
113
115
109
101
156
189
182
147
109
198
114
113
91
100
135
149
146
128
127
133
122
110
104
104
110
119
114
125
174
194
206
190
120
164
96
82
87
97
107
120
135
131
123
128
127
121
119
123
122
131
131
151
181
181
185
185
153
124
93
87
86
105
128
139
148
155
160
160
158
154
168
169
166
166
160
168
177
175
178
170
165
99
124
147
150
158
165
172
176
177
179
180
181
170
170
175
172
158
126
132
143
162
171
163
166
108
146
152
164
164
168
171
176
178
180
180
176
167
149
149
152
137
101
119
144
156
166
162
163
135
114
112
149
167
172
173
173
169
162
155
149
146
140
147
166
158
139
151
164
158
162
155
156
151
107
132
145
161
166
155
146
142
144
149
155
161
166
157
165
170
159
163
168
164
159
157
157
146
152
162
153
144
139
136
146
156
163
170
171
168
164
152
159
166
161
160
163
166
157
150
129
110
140
140
147
139
135
157
165
167
165
161
148
132
113
104
145
162
161
162
158
151
126
106
100
89
140
143
148
147
136
143
145
150
154
152
107
76
72
71
129
160
151
141
124
107
100
97
87
73
142
141
125
112
103
100
96
132
153
150
111
91
98
101
122
121
110
103
99
97
85
76
66
60
133
129
89
74
79
86
89
128
151
148
130
113
103
94
93
94
96
97
90
75
57
62
58
54
133
134
102
94
105
112
120
123
111
94
82
80
86
89
95
97
88
70
63
65
72
64
49
45
121
117
107
99
94
87
77
73
72
77
81
88
91
86
78
70
62
62
64
58
67
56
40
38
72
67
62
61
63
67
71
74
78
79
78
76
69
56
53
65
64
61
52
48
52
43
38
38
46
49
50
55
65
68
69
67
62
56
55
56
53
60
82
70
54
49
45
46
42
38
37
38
