P2
# Created by GIMP version 2.10.20 PNM plug-in
24 24
255
245
240
205
114
101
113
94
113
105
95
104
96
106
128
126
154
190
191
201
228
220
222
226
208
246
236
213
124
75
98
100
110
108
111
115
107
96
95
96
97
130
194
216
231
223
218
213
196
240
216
214
158
84
123
140
157
147
143
157
152
144
132
125
130
117
159
223
233
233
219
192
186
226
195
212
154
85
154
190
203
207
167
144
146
144
152
144
146
169
141
162
214
225
210
210
209
226
203
217
131
86
137
136
138
187
154
128
138
137
148
152
139
166
159
144
193
208
216
231
215
227
190
170
114
88
143
131
122
150
138
128
132
137
142
154
137
160
167
147
194
230
239
239
230
219
132
131
99
83
125
125
116
117
116
119
119
127
131
130
129
147
161
155
171
207
227
246
244
212
164
162
94
64
72
98
106
102
102
107
107
108
104
99
107
116
131
140
131
155
216
248
243
183
174
176
104
58
60
94
106
119
108
92
89
89
89
97
119
114
102
118
134
176
225
245
244
157
140
146
102
107
107
116
108
123
127
102
91
97
112
130
150
134
107
111
127
152
179
195
211
151
130
133
129
128
101
111
99
95
99
90
84
83
88
89
90
85
79
80
87
105
125
141
141
104
132
174
179
106
84
82
57
46
49
62
65
62
65
60
55
51
52
64
67
73
78
95
103
85
130
177
150
87
78
91
95
104
80
81
72
35
26
28
25
51
49
22
27
22
53
92
105
109
141
147
66
69
91
111
123
151
122
129
101
74
93
109
99
147
146
91
98
92
107
135
143
102
151
122
29
57
100
106
81
85
102
130
99
150
172
158
160
173
170
162
163
160
174
157
121
79
131
103
42
56
72
77
61
54
56
64
93
159
123
91
102
117
108
103
104
100
155
126
67
54
81
86
59
54
43
64
71
61
55
64
65
99
115
107
105
103
99
96
100
104
112
101
74
79
65
76
66
49
32
42
50
68
76
87
62
51
71
81
71
64
68
62
92
86
58
82
109
88
103
68
70
61
40
37
34
75
99
143
78
28
82
143
115
97
112
100
149
174
60
72
141
46
102
93
98
94
50
38
35
40
49
87
54
30
77
148
125
121
137
116
154
158
54
52
74
36
56
104
143
105
60
42
32
28
27
28
32
39
41
56
88
106
120
121
116
65
46
50
48
90
93
107
139
95
75
54
35
29
29
28
31
34
23
63
176
207
203
179
182
86
36
42
46
151
116
106
139
90
84
78
47
23
23
24
28
37
36
71
165
186
178
170
167
80
27
28
47
145
117
102
144
86
86
82
53
30
29
32
36
52
75
84
100
105
120
141
136
57
29
31
52
