P2
# Created by GIMP version 2.10.20 PNM plug-in
24 24
255
122
115
130
129
128
128
129
130
126
117
109
112
116
107
88
50
46
62
68
60
68
84
87
87
130
121
129
132
131
133
132
130
126
123
109
102
126
123
116
88
68
90
95
76
78
80
83
84
134
131
130
127
137
137
139
131
134
133
121
108
117
120
125
124
107
104
106
82
77
79
72
74
132
132
129
137
142
137
142
136
135
130
129
117
117
122
127
125
120
92
102
85
72
74
61
68
132
130
132
134
142
138
131
132
134
123
118
112
110
106
116
121
129
111
126
100
73
71
77
84
137
135
138
126
132
139
144
140
132
124
118
126
118
100
100
116
126
116
133
112
70
73
83
85
133
141
139
140
141
145
143
135
128
128
131
154
141
111
94
105
113
113
119
98
53
73
73
71
107
135
146
145
143
130
132
147
169
156
123
140
149
120
98
110
111
107
97
57
48
70
73
71
151
165
151
144
139
119
132
162
182
152
126
91
72
99
92
109
121
103
86
57
47
54
64
68
166
160
153
151
130
116
151
167
158
138
137
127
84
123
122
115
130
99
76
52
41
48
59
66
160
155
145
153
140
141
169
164
136
126
144
159
151
165
151
157
136
101
82
53
52
53
64
78
162
160
145
135
151
162
174
173
168
146
155
169
168
164
165
167
144
128
91
63
56
48
72
105
155
152
140
118
145
172
182
166
170
149
148
169
162
156
155
160
162
142
79
54
34
40
82
113
154
157
156
114
133
185
141
118
156
153
136
132
135
146
135
132
123
95
48
29
23
34
80
112
165
161
154
107
97
176
125
133
175
144
89
109
89
110
96
72
61
35
26
34
30
46
78
126
163
169
163
123
44
130
157
148
159
126
102
168
135
96
72
45
43
32
45
56
38
53
80
129
158
168
159
125
19
34
106
123
125
101
93
142
153
109
62
38
55
56
58
60
35
39
77
134
150
156
137
96
21
16
27
41
60
69
61
83
100
86
65
34
37
39
41
60
51
53
73
122
134
143
123
76
56
73
47
29
32
47
59
83
63
37
42
32
27
25
19
37
58
61
69
89
118
136
122
105
108
84
68
74
78
75
89
72
31
11
10
15
19
21
11
13
28
41
68
70
111
112
144
157
130
75
88
88
96
91
82
67
47
28
22
16
15
11
12
17
14
44
71
50
114
99
115
144
151
116
135
111
85
93
97
87
73
53
45
32
25
17
12
21
23
47
54
29
130
126
104
87
141
117
89
94
86
112
118
101
86
73
65
58
59
49
38
49
52
46
44
49
131
125
113
86
104
125
81
86
90
112
117
110
86
84
89
87
79
72
73
87
84
75
74
77
