P2
# Created by GIMP version 2.10.20 PNM plug-in
15 8
255
255
255
255
255
255
255
255
255
255
255
255
255
255
255
255
255
255
255
255
255
255
229
255
255
255
255
255
255
255
255
255
255
255
255
255
255
160
255
251
249
255
255
255
255
255
255
255
255
255
254
250
166
254
207
239
254
255
255
255
255
255
255
255
255
157
171
154
163
174
186
172
207
255
255
255
255
255
255
250
143
149
208
163
154
155
171
231
255
255
255
255
255
255
255
253
254
254
253
251
156
254
255
255
255
255
255
255
255
255
255
255
255
255
252
240
255
255
255
255
255
