P2
# Created by GIMP version 2.10.20 PNM plug-in
15 8
255
255
255
255
255
255
255
255
255
255
255
255
255
255
255
255
255
255
255
255
255
255
255
255
255
255
255
230
255
255
255
255
255
255
235
251
255
255
255
255
255
249
175
255
255
255
255
255
255
160
252
254
254
254
255
253
230
200
254
255
255
255
255
251
131
166
198
178
181
206
183
170
173
175
255
255
255
255
240
174
154
239
151
146
177
206
166
155
235
255
255
255
255
254
254
254
255
253
253
254
254
254
255
254
255
255
255
255
255
255
255
255
255
255
255
255
255
255
255
255
255
