P3
# Created by GIMP version 2.10.20 PNM plug-in
24 24
255
96
130
155
96
130
155
95
129
154
96
130
155
97
132
155
97
133
153
97
133
153
97
133
153
97
133
153
97
133
155
97
133
156
98
133
156
99
134
157
100
134
156
104
134
156
104
135
161
105
133
152
88
109
106
96
112
107
128
142
150
165
177
183
186
195
197
180
187
188
135
150
158
97
131
156
97
131
156
96
130
155
96
130
155
97
132
154
96
132
152
96
132
152
96
132
152
96
132
152
96
132
154
96
131
155
96
132
155
96
132
156
97
132
156
99
134
161
99
134
164
104
133
150
105
120
111
101
109
93
149
157
153
189
198
198
188
197
202
154
164
174
109
132
149
97
131
156
97
131
156
96
130
155
96
130
155
96
131
155
96
131
153
96
131
153
96
131
153
96
131
153
97
132
152
97
133
153
98
132
154
98
131
156
97
131
158
96
133
161
98
133
157
107
133
145
129
142
137
115
120
105
147
152
139
188
198
195
163
178
187
117
137
156
100
131
156
96
130
155
96
130
155
96
130
155
96
130
155
96
130
155
96
130
155
96
130
155
96
130
155
96
130
155
97
133
152
97
134
152
99
133
155
100
132
157
100
131
159
97
130
155
103
132
149
124
143
149
133
145
141
123
129
117
133
138
124
167
180
177
126
147
158
103
130
153
105
134
159
96
130
155
96
130
155
96
130
155
96
130
155
96
130
155
96
130
155
96
130
155
96
130
155
96
130
155
95
133
155
96
134
156
98
133
156
100
132
156
103
131
154
106
130
147
136
155
164
167
179
179
137
141
132
127
131
117
116
124
112
129
142
141
114
135
147
106
131
152
118
137
153
96
130
155
96
130
155
96
130
155
97
130
155
96
130
155
96
130
155
96
130
155
96
130
155
96
130
155
95
133
158
96
133
158
100
133
155
104
133
152
112
136
152
140
155
163
183
193
195
189
193
187
140
138
124
128
128
112
105
113
101
109
121
119
112
130
140
119
140
157
163
172
180
98
132
157
98
132
157
98
132
157
98
132
157
97
131
156
96
130
155
97
130
155
97
130
155
96
130
155
97
132
158
100
133
157
108
136
153
126
147
158
153
169
175
188
194
196
204
207
203
185
184
175
138
134
117
131
130
112
106
111
97
104
111
105
123
133
138
149
162
173
184
186
189
98
132
157
98
132
157
98
132
157
98
132
157
98
132
157
98
132
157
98
132
157
98
132
157
98
132
157
101
132
157
107
133
153
128
147
158
154
165
167
178
184
181
205
206
204
206
206
201
187
186
175
157
153
137
148
144
125
124
122
104
112
112
100
139
140
137
161
163
167
176
177
178
98
132
156
98
131
155
99
132
155
99
132
155
99
132
156
99
132
156
99
132
156
100
132
156
100
133
156
111
138
160
133
152
168
170
182
186
159
162
155
128
127
116
190
191
186
207
208
201
193
192
182
175
174
160
164
159
139
162
155
132
151
145
128
140
133
124
146
140
136
159
161
163
100
135
157
112
139
155
116
138
149
123
144
155
121
144
158
121
145
160
128
150
164
129
149
162
134
153
165
155
167
178
175
182
188
198
202
199
166
165
155
109
107
94
161
162
153
205
206
196
198
197
185
185
183
171
188
184
166
200
193
171
198
190
171
169
159
146
120
109
100
92
94
95
109
137
151
126
142
145
148
154
150
175
182
180
177
188
190
182
193
197
189
198
201
189
196
198
190
195
196
196
196
196
189
187
185
183
181
176
163
161
151
114
113
101
129
131
118
191
193
179
205
204
191
197
192
181
198
194
179
201
198
180
203
197
181
189
180
167
145
135
125
106
109
109
107
117
116
102
103
96
158
155
145
194
195
187
199
202
198
206
208
205
207
210
207
208
212
210
210
213
213
214
212
211
207
203
201
200
197
192
168
166
156
115
114
101
119
122
108
171
172
158
198
197
184
195
189
177
195
190
176
193
190
175
191
188
176
191
187
177
189
184
178
143
151
153
159
149
136
168
157
143
175
167
154
174
171
163
180
178
170
190
186
178
200
198
193
203
204
201
208
210
209
214
212
211
211
207
205
213
209
204
177
174
165
129
128
116
124
126
112
148
149
135
175
174
161
174
169
157
174
169
157
158
155
145
146
146
139
140
142
139
132
137
137
106
120
127
165
150
135
175
166
154
170
166
159
162
162
158
179
178
172
196
193
187
210
208
203
211
211
207
208
208
204
203
201
199
202
198
196
209
206
200
180
178
168
142
141
128
125
127
113
123
125
111
157
156
143
150
145
132
124
119
109
83
81
76
76
78
78
110
120
124
115
131
138
113
134
146
111
105
100
148
151
152
167
177
182
172
180
185
181
188
190
194
201
202
209
213
211
210
210
205
208
206
199
204
200
197
205
202
199
210
207
201
181
178
169
142
141
129
116
118
105
110
112
98
135
133
120
96
91
79
70
63
56
43
39
39
25
30
35
98
114
124
114
138
153
108
136
153
98
108
117
117
137
153
125
149
168
135
153
166
142
159
170
157
174
184
182
192
196
197
197
194
206
200
192
203
198
195
205
202
200
201
197
192
179
176
167
141
140
128
106
108
95
113
115
101
120
118
105
69
64
52
57
51
45
36
33
37
41
48
57
102
124
139
106
138
157
102
134
155
107
131
149
103
133
156
103
134
158
107
133
153
108
134
152
113
141
158
130
149
160
173
178
179
205
200
193
202
201
199
200
198
198
190
185
180
179
176
170
116
119
114
88
96
91
136
140
132
166
164
154
153
148
137
142
141
138
100
106
114
96
110
122
114
139
156
105
137
157
101
134
155
102
132
153
102
133
155
103
135
156
105
135
156
103
135
157
101
135
158
107
134
151
161
174
179
204
203
198
203
204
204
198
198
198
190
184
180
175
174
173
106
115
121
88
103
110
160
167
167
202
200
193
196
193
184
181
187
189
131
149
161
113
135
148
112
138
154
107
136
154
102
133
154
102
133
154
102
133
154
104
135
155
104
135
156
102
135
158
101
136
159
106
135
153
161
175
181
207
205
200
208
205
202
199
196
194
187
184
182
158
164
169
114
130
143
110
129
140
169
178
181
203
204
201
192
193
189
157
168
172
113
135
148
108
132
146
108
135
152
105
134
153
102
133
153
102
133
154
102
133
154
104
135
156
104
135
156
102
136
158
101
136
159
105
134
152
161
175
181
210
207
202
211
203
197
197
192
188
180
183
186
136
151
163
107
131
149
111
132
145
164
176
182
200
206
206
182
189
190
133
148
156
109
132
146
106
132
148
103
132
151
102
132
153
102
133
154
102
133
154
102
133
154
104
135
156
104
135
156
102
135
158
101
136
159
105
134
152
161
175
181
207
204
199
205
195
186
195
191
188
166
177
185
116
139
158
104
133
155
107
132
147
156
172
181
196
208
213
157
172
180
113
134
146
107
133
148
106
135
152
101
132
152
100
132
154
101
133
154
102
133
154
102
133
154
103
135
156
104
135
156
102
135
158
100
136
159
105
134
152
156
170
176
200
197
191
199
190
182
188
189
190
142
159
172
106
133
154
105
135
157
105
132
150
138
159
170
154
172
181
118
141
154
107
134
150
109
136
153
105
135
154
101
133
155
98
133
156
100
132
154
102
133
154
102
133
154
103
135
156
104
135
156
102
135
158
100
136
159
105
134
153
153
167
173
193
191
186
195
190
185
173
180
186
119
141
158
106
133
155
106
133
154
106
134
152
114
137
151
114
136
149
105
134
152
106
137
156
109
138
156
106
136
157
102
136
158
98
134
157
99
131
154
103
134
155
103
134
155
104
135
156
104
135
156
102
135
158
101
136
158
106
134
150
155
167
172
193
192
187
192
192
190
153
165
174
110
135
153
107
135
156
106
133
154
105
135
154
107
134
151
109
135
152
103
135
155
104
136
157
108
138
157
106
138
159
103
137
159
99
134
157
98
130
153
