P2
# Created by GIMP version 2.10.20 PNM plug-in
24 24
255
125
125
124
125
127
128
128
128
128
128
128
128
129
129
130
131
129
105
108
140
175
193
186
147
126
126
125
125
127
127
127
127
127
127
126
127
127
127
129
129
128
116
106
155
196
195
162
128
126
126
125
125
126
126
126
126
126
127
128
127
126
126
128
128
129
139
118
150
196
175
134
127
125
125
125
125
125
125
125
125
125
127
128
128
128
127
125
127
139
142
127
136
177
143
126
130
125
125
125
125
125
125
125
125
125
127
128
128
127
127
126
152
176
140
129
122
139
131
127
134
125
125
125
125
125
125
125
125
125
128
128
128
129
132
152
191
192
138
127
111
118
127
137
171
127
127
127
127
126
125
125
125
125
127
128
132
143
166
193
206
184
134
129
109
109
131
160
186
127
127
127
127
127
127
127
127
127
128
129
144
163
183
206
206
186
153
144
121
111
140
163
177
127
126
127
127
127
127
127
127
128
134
149
180
161
127
190
207
192
173
159
155
145
134
141
161
130
135
134
140
140
141
146
146
150
165
181
201
165
107
161
205
197
183
184
193
191
161
111
94
132
139
152
180
186
191
196
195
194
196
187
181
161
113
130
192
203
192
194
198
197
181
137
108
115
102
155
194
201
207
209
211
212
212
204
197
166
113
121
171
196
190
190
190
188
187
185
149
151
159
168
171
178
186
198
204
209
212
208
210
174
128
125
148
173
169
169
155
146
141
136
118
153
167
166
162
178
193
208
211
208
201
199
206
178
140
126
124
155
145
120
81
78
118
128
130
106
150
175
179
187
200
212
210
206
201
202
207
178
141
117
111
133
91
64
40
29
111
134
132
106
134
145
150
156
171
190
197
201
199
203
198
176
140
107
114
118
65
52
34
47
121
133
129
127
129
130
129
130
137
146
177
201
201
198
186
176
118
94
139
164
149
141
105
108
135
132
129
128
128
130
131
130
130
130
172
203
204
198
185
174
113
100
165
200
193
186
146
131
134
131
128
128
128
130
130
130
131
130
172
205
205
197
185
163
128
126
176
204
193
166
131
128
131
130
128
128
128
130
130
131
131
129
172
207
204
193
183
149
127
129
174
205
188
145
128
128
128
128
128
128
128
130
130
130
131
129
172
204
197
192
175
136
129
128
169
206
169
130
129
130
127
127
128
128
128
130
130
130
131
129
167
197
192
189
156
129
131
128
155
169
137
130
132
130
128
128
127
128
128
130
130
130
131
130
164
191
191
179
138
129
129
130
133
132
129
132
133
132
131
129
126
129
129
130
130
130
131
130
165
192
192
163
131
131
129
130
130
131
130
131
133
133
132
129
125
