P2
# Created by GIMP version 2.10.20 PNM plug-in
24 24
255
106
86
84
88
86
35
23
32
43
50
68
80
97
104
99
94
96
102
68
97
157
166
105
109
89
82
85
73
81
31
24
39
70
85
98
99
95
93
93
72
53
103
91
96
163
181
122
118
85
94
88
59
68
26
35
83
115
118
119
91
52
66
110
53
34
115
105
99
178
188
133
132
97
92
90
68
52
18
68
128
126
127
104
37
23
60
109
74
56
118
112
129
167
190
142
142
141
108
75
88
69
41
105
132
125
123
57
21
64
116
87
82
110
132
143
152
160
171
142
144
154
147
79
65
79
87
130
133
129
87
30
51
116
133
107
120
142
146
145
119
160
165
145
147
156
157
120
61
50
106
132
122
124
92
68
101
125
123
135
148
144
155
109
80
163
167
144
149
152
159
156
90
69
128
126
109
115
103
133
157
147
145
141
130
121
127
110
125
180
161
138
150
128
155
163
144
137
140
122
121
122
95
102
136
141
136
130
119
124
109
119
130
168
165
126
136
120
133
162
162
150
126
133
125
123
121
116
113
109
111
122
129
135
126
135
120
143
156
133
144
123
108
157
159
139
113
109
116
128
132
145
135
126
124
112
116
120
122
145
148
146
122
140
149
120
117
144
157
150
175
124
70
110
128
128
143
160
149
132
124
126
106
134
169
163
144
126
151
133
144
142
154
133
167
171
74
102
138
144
146
134
141
164
162
167
155
129
129
171
180
126
137
139
118
136
129
135
122
172
156
125
133
151
152
146
144
137
143
139
147
156
138
148
133
150
119
134
92
116
111
135
121
122
190
149
116
141
135
159
166
152
159
157
138
151
148
138
126
98
83
114
95
88
118
127
146
93
128
173
141
150
164
155
153
171
171
145
133
147
148
136
134
74
89
113
96
78
123
95
110
134
71
119
166
159
174
169
154
163
172
150
142
152
149
131
127
107
108
123
94
92
114
113
84
145
118
91
151
183
172
166
177
150
148
149
140
134
143
129
123
114
97
129
111
91
108
142
133
109
142
127
149
175
183
169
172
163
145
130
144
145
146
141
135
120
105
165
148
112
103
135
146
108
99
146
163
157
178
166
159
159
144
141
152
142
149
142
137
123
132
203
179
158
137
135
115
120
130
134
162
155
171
161
158
162
147
138
175
153
142
131
125
109
110
207
208
181
165
158
123
110
157
166
151
159
148
127
131
157
157
149
168
156
130
124
136
99
69
183
199
204
184
165
161
135
120
137
139
136
106
73
93
143
161
165
142
153
147
136
120
86
55
113
169
186
205
193
173
160
142
132
140
134
120
101
92
144
160
149
164
153
132
135
99
47
89
